<svg xmlns="http://www.w3.org/2000/svg" xmlns:xlink="http://www.w3.org/1999/xlink" width="500" zoomAndPan="magnify" viewBox="0 0 375 374.999991" height="500" preserveAspectRatio="xMidYMid meet" version="1.0"><defs><g/></defs><g fill="#2a46c6" fill-opacity="1"><g transform="translate(86.14754, 200.173859)"><g><path d="M 7.40625 -32.5 L 12.15625 -32.5 C 14.15625 -32.5 15.554688 -32.898438 16.359375 -33.703125 C 17.171875 -34.515625 17.578125 -35.921875 17.578125 -37.921875 L 17.578125 -68.984375 C 17.578125 -70.960938 17.921875 -72.800781 18.609375 -74.5 C 19.304688 -76.195312 20.269531 -77.660156 21.5 -78.890625 C 22.738281 -80.128906 24.207031 -81.09375 25.90625 -81.78125 C 27.601562 -82.46875 29.4375 -82.8125 31.40625 -82.8125 L 35.265625 -82.8125 L 35.265625 -78.078125 L 34.21875 -78.078125 C 31.226562 -78.078125 29.082031 -77.425781 27.78125 -76.125 C 26.476562 -74.820312 25.828125 -72.675781 25.828125 -69.6875 L 25.828125 -40.890625 C 25.828125 -38.847656 25.65625 -37.148438 25.3125 -35.796875 C 24.96875 -34.453125 24.519531 -33.375 23.96875 -32.5625 C 23.425781 -31.757812 22.789062 -31.191406 22.0625 -30.859375 C 21.34375 -30.535156 20.625 -30.375 19.90625 -30.375 L 19.90625 -29.875 C 20.625 -29.875 21.34375 -29.707031 22.0625 -29.375 C 22.789062 -29.050781 23.425781 -28.484375 23.96875 -27.671875 C 24.519531 -26.867188 24.96875 -25.789062 25.3125 -24.4375 C 25.65625 -23.09375 25.828125 -21.398438 25.828125 -19.359375 L 25.828125 9.4375 C 25.828125 12.425781 26.476562 14.570312 27.78125 15.875 C 29.082031 17.175781 31.226562 17.828125 34.21875 17.828125 L 35.265625 17.828125 L 35.265625 22.5625 L 31.40625 22.5625 C 29.4375 22.5625 27.601562 22.21875 25.90625 21.53125 C 24.207031 20.84375 22.738281 19.878906 21.5 18.640625 C 20.269531 17.410156 19.304688 15.945312 18.609375 14.25 C 17.921875 12.550781 17.578125 10.710938 17.578125 8.734375 L 17.578125 -22.328125 C 17.578125 -24.328125 17.171875 -25.726562 16.359375 -26.53125 C 15.554688 -27.34375 14.15625 -27.75 12.15625 -27.75 L 7.40625 -27.75 Z M 7.40625 -32.5 "/></g></g></g><g fill="#2a46c6" fill-opacity="1"><g transform="translate(126.955449, 200.173859)"><g><path d="M 31.953125 -16.59375 C 31.953125 -10.863281 30.566406 -6.484375 27.796875 -3.453125 C 25.035156 -0.421875 20.90625 1.09375 15.40625 1.09375 C 13.425781 1.09375 11.445312 0.828125 9.46875 0.296875 C 7.5 -0.234375 5.84375 -0.84375 4.5 -1.53125 L 3.453125 -14.375 L 8.546875 -15.453125 L 12.59375 -5.96875 C 13.28125 -5.707031 13.953125 -5.519531 14.609375 -5.40625 C 15.273438 -5.289062 15.882812 -5.234375 16.4375 -5.234375 C 17.226562 -5.234375 18.035156 -5.332031 18.859375 -5.53125 C 19.679688 -5.726562 20.40625 -5.972656 21.03125 -6.265625 C 21.5 -7.523438 21.867188 -9.195312 22.140625 -11.28125 C 22.421875 -13.375 22.5625 -15.6875 22.5625 -18.21875 L 22.5625 -60.296875 L 13.03125 -61.984375 L 14.03125 -66.8125 L 38.46875 -66.8125 L 39.453125 -61.984375 L 31.953125 -60.296875 Z M 31.953125 -16.59375 "/></g></g></g><g fill="#2a46c6" fill-opacity="1"><g transform="translate(169.985777, 200.173859)"><g><path d="M 6.90625 -3.90625 C 6.90625 -5.019531 7.035156 -6.09375 7.296875 -7.125 C 7.566406 -8.164062 7.929688 -9.070312 8.390625 -9.84375 C 8.859375 -10.625 9.382812 -11.242188 9.96875 -11.703125 C 10.5625 -12.160156 11.207031 -12.390625 11.90625 -12.390625 C 13.082031 -12.390625 14.179688 -12.257812 15.203125 -12 C 16.222656 -11.738281 17.117188 -11.375 17.890625 -10.90625 C 18.671875 -10.445312 19.273438 -9.90625 19.703125 -9.28125 C 20.128906 -8.65625 20.34375 -8 20.34375 -7.3125 C 20.34375 -6.1875 20.210938 -5.125 19.953125 -4.125 C 19.691406 -3.125 19.328125 -2.234375 18.859375 -1.453125 C 18.398438 -0.679688 17.863281 -0.0664062 17.25 0.390625 C 16.644531 0.859375 16 1.09375 15.3125 1.09375 C 14.125 1.09375 13.019531 0.957031 12 0.6875 C 10.976562 0.425781 10.085938 0.0664062 9.328125 -0.390625 C 8.578125 -0.859375 7.984375 -1.382812 7.546875 -1.96875 C 7.117188 -2.5625 6.90625 -3.207031 6.90625 -3.90625 Z M 6.90625 -3.90625 "/></g></g></g><g fill="#2a46c6" fill-opacity="1"><g transform="translate(197.755522, 200.173859)"><g><path d="M 11.203125 -60.296875 L 3.65625 -61.984375 L 4.640625 -66.8125 L 27.109375 -66.8125 L 28.09375 -61.984375 L 20.59375 -60.296875 L 20.59375 -6.375 L 37.1875 -6.375 L 41.28125 -15.90625 L 46.421875 -14.8125 L 45.1875 0 L 4.640625 0 L 3.65625 -4.84375 L 11.203125 -6.515625 Z M 11.203125 -60.296875 "/></g></g></g><g fill="#2a46c6" fill-opacity="1"><g transform="translate(248.638366, 200.173859)"><g><path d="M 32.796875 -27.75 L 28.046875 -27.75 C 26.035156 -27.75 24.628906 -27.34375 23.828125 -26.53125 C 23.023438 -25.726562 22.625 -24.328125 22.625 -22.328125 L 22.625 8.734375 C 22.625 10.710938 22.273438 12.550781 21.578125 14.25 C 20.890625 15.945312 19.925781 17.410156 18.6875 18.640625 C 17.457031 19.878906 15.992188 20.84375 14.296875 21.53125 C 12.597656 22.21875 10.765625 22.5625 8.796875 22.5625 L 4.9375 22.5625 L 4.9375 17.828125 L 5.96875 17.828125 C 8.96875 17.828125 11.117188 17.175781 12.421875 15.875 C 13.722656 14.570312 14.375 12.425781 14.375 9.4375 L 14.375 -19.359375 C 14.375 -21.398438 14.546875 -23.09375 14.890625 -24.4375 C 15.234375 -25.789062 15.675781 -26.867188 16.21875 -27.671875 C 16.757812 -28.484375 17.382812 -29.050781 18.09375 -29.375 C 18.800781 -29.707031 19.535156 -29.875 20.296875 -29.875 L 20.296875 -30.375 C 19.535156 -30.375 18.800781 -30.535156 18.09375 -30.859375 C 17.382812 -31.191406 16.757812 -31.757812 16.21875 -32.5625 C 15.675781 -33.375 15.234375 -34.453125 14.890625 -35.796875 C 14.546875 -37.148438 14.375 -38.847656 14.375 -40.890625 L 14.375 -69.6875 C 14.375 -72.675781 13.722656 -74.820312 12.421875 -76.125 C 11.117188 -77.425781 8.96875 -78.078125 5.96875 -78.078125 L 4.9375 -78.078125 L 4.9375 -82.8125 L 8.796875 -82.8125 C 10.765625 -82.8125 12.597656 -82.46875 14.296875 -81.78125 C 15.992188 -81.09375 17.457031 -80.128906 18.6875 -78.890625 C 19.925781 -77.660156 20.890625 -76.195312 21.578125 -74.5 C 22.273438 -72.800781 22.625 -70.960938 22.625 -68.984375 L 22.625 -37.921875 C 22.625 -35.921875 23.023438 -34.515625 23.828125 -33.703125 C 24.628906 -32.898438 26.035156 -32.5 28.046875 -32.5 L 32.796875 -32.5 Z M 32.796875 -27.75 "/></g></g></g><g fill="#8f8f8f" fill-opacity="1"><g transform="translate(134.78169, 244.855897)"><g><path d="M 1.671875 0.109375 C 1.296875 0.109375 0.929688 0.0664062 0.578125 -0.015625 C 0.234375 -0.0976562 0.0625 -0.238281 0.0625 -0.4375 C 0.0625 -0.582031 0.0976562 -0.78125 0.171875 -1.03125 C 0.242188 -1.289062 0.347656 -1.421875 0.484375 -1.421875 C 0.523438 -1.421875 0.632812 -1.398438 0.8125 -1.359375 C 0.988281 -1.316406 1.179688 -1.296875 1.390625 -1.296875 C 2.046875 -1.296875 2.519531 -1.429688 2.8125 -1.703125 C 3.101562 -1.984375 3.25 -2.4375 3.25 -3.0625 L 3.25 -10.140625 C 3.25 -10.390625 3.472656 -10.515625 3.921875 -10.515625 L 4.171875 -10.515625 C 4.628906 -10.515625 4.859375 -10.390625 4.859375 -10.140625 L 4.859375 -3.0625 C 4.859375 -2.070312 4.597656 -1.296875 4.078125 -0.734375 C 3.566406 -0.171875 2.765625 0.109375 1.671875 0.109375 Z M 1.671875 0.109375 "/></g></g></g><g fill="#8f8f8f" fill-opacity="1"><g transform="translate(141.955863, 244.855897)"><g><path d="M 0.859375 0.03125 C 0.378906 0.03125 0.140625 -0.0546875 0.140625 -0.234375 C 0.140625 -0.296875 0.15625 -0.378906 0.1875 -0.484375 L 3.65625 -10.265625 C 3.71875 -10.429688 3.941406 -10.515625 4.328125 -10.515625 L 4.859375 -10.515625 C 5.242188 -10.515625 5.46875 -10.429688 5.53125 -10.265625 L 9 -0.46875 C 9.03125 -0.375 9.046875 -0.296875 9.046875 -0.234375 C 9.046875 -0.0546875 8.820312 0.03125 8.375 0.03125 L 8.109375 0.03125 C 7.722656 0.03125 7.5 -0.0507812 7.4375 -0.21875 L 6.640625 -2.5 L 2.484375 -2.5 L 1.703125 -0.21875 C 1.640625 -0.0507812 1.429688 0.03125 1.078125 0.03125 Z M 6.15625 -3.875 L 4.796875 -7.84375 C 4.753906 -7.976562 4.710938 -8.140625 4.671875 -8.328125 C 4.640625 -8.515625 4.613281 -8.648438 4.59375 -8.734375 L 4.5625 -8.734375 C 4.488281 -8.316406 4.414062 -8.019531 4.34375 -7.84375 L 2.96875 -3.875 Z M 6.15625 -3.875 "/></g></g></g><g fill="#8f8f8f" fill-opacity="1"><g transform="translate(152.290092, 244.855897)"><g><path d="M 5.671875 0.109375 C 4.003906 0.109375 2.773438 -0.320312 1.984375 -1.1875 C 1.203125 -2.0625 0.8125 -3.421875 0.8125 -5.265625 C 0.8125 -8.816406 2.4375 -10.59375 5.6875 -10.59375 C 6.175781 -10.59375 6.660156 -10.539062 7.140625 -10.4375 C 7.617188 -10.332031 7.992188 -10.203125 8.265625 -10.046875 C 8.515625 -9.890625 8.640625 -9.75 8.640625 -9.625 C 8.640625 -9.457031 8.5625 -9.242188 8.40625 -8.984375 C 8.257812 -8.722656 8.125 -8.59375 8 -8.59375 C 7.96875 -8.59375 7.84375 -8.648438 7.625 -8.765625 C 7.40625 -8.878906 7.132812 -8.976562 6.8125 -9.0625 C 6.5 -9.15625 6.128906 -9.203125 5.703125 -9.203125 C 4.597656 -9.203125 3.78125 -8.882812 3.25 -8.25 C 2.71875 -7.613281 2.453125 -6.613281 2.453125 -5.25 C 2.453125 -3.894531 2.710938 -2.894531 3.234375 -2.25 C 3.765625 -1.601562 4.578125 -1.28125 5.671875 -1.28125 C 6.148438 -1.28125 6.5625 -1.335938 6.90625 -1.453125 C 7.257812 -1.566406 7.59375 -1.703125 7.90625 -1.859375 C 8.050781 -1.941406 8.148438 -1.984375 8.203125 -1.984375 C 8.285156 -1.984375 8.375 -1.921875 8.46875 -1.796875 C 8.5625 -1.671875 8.644531 -1.53125 8.71875 -1.375 C 8.789062 -1.21875 8.828125 -1.101562 8.828125 -1.03125 C 8.828125 -0.832031 8.660156 -0.648438 8.328125 -0.484375 C 8.023438 -0.304688 7.628906 -0.160156 7.140625 -0.046875 C 6.648438 0.0546875 6.160156 0.109375 5.671875 0.109375 Z M 5.671875 0.109375 "/></g></g></g><g fill="#8f8f8f" fill-opacity="1"><g transform="translate(162.714181, 244.855897)"><g><path d="M 5.46875 0.109375 C 3.957031 0.109375 2.800781 -0.347656 2 -1.265625 C 1.207031 -2.191406 0.8125 -3.523438 0.8125 -5.265625 C 0.8125 -7.003906 1.207031 -8.328125 2 -9.234375 C 2.800781 -10.140625 3.957031 -10.59375 5.46875 -10.59375 C 7 -10.59375 8.160156 -10.140625 8.953125 -9.234375 C 9.742188 -8.328125 10.140625 -7.003906 10.140625 -5.265625 C 10.140625 -3.515625 9.738281 -2.179688 8.9375 -1.265625 C 8.144531 -0.347656 6.988281 0.109375 5.46875 0.109375 Z M 5.46875 -1.28125 C 6.445312 -1.28125 7.195312 -1.617188 7.71875 -2.296875 C 8.238281 -2.972656 8.5 -3.960938 8.5 -5.265625 C 8.5 -6.554688 8.238281 -7.535156 7.71875 -8.203125 C 7.207031 -8.867188 6.457031 -9.203125 5.46875 -9.203125 C 4.476562 -9.203125 3.726562 -8.867188 3.21875 -8.203125 C 2.707031 -7.535156 2.453125 -6.554688 2.453125 -5.265625 C 2.453125 -3.960938 2.707031 -2.972656 3.21875 -2.296875 C 3.738281 -1.617188 4.488281 -1.28125 5.46875 -1.28125 Z M 5.46875 -1.28125 "/></g></g></g><g fill="#8f8f8f" fill-opacity="1"><g transform="translate(174.815644, 244.855897)"><g><path d="M 1.859375 0 C 1.691406 0 1.566406 -0.0351562 1.484375 -0.109375 C 1.398438 -0.191406 1.359375 -0.320312 1.359375 -0.5 L 1.359375 -10 C 1.359375 -10.164062 1.398438 -10.285156 1.484375 -10.359375 C 1.566406 -10.441406 1.691406 -10.484375 1.859375 -10.484375 L 4.609375 -10.484375 C 5.742188 -10.484375 6.597656 -10.242188 7.171875 -9.765625 C 7.742188 -9.296875 8.03125 -8.65625 8.03125 -7.84375 C 8.03125 -7.351562 7.867188 -6.882812 7.546875 -6.4375 C 7.222656 -5.988281 6.835938 -5.695312 6.390625 -5.5625 L 6.390625 -5.5 C 6.585938 -5.457031 6.847656 -5.34375 7.171875 -5.15625 C 7.492188 -4.976562 7.789062 -4.707031 8.0625 -4.34375 C 8.332031 -3.988281 8.46875 -3.550781 8.46875 -3.03125 C 8.46875 -1.007812 7.175781 0 4.59375 0 Z M 4.5 -6.0625 C 5.039062 -6.0625 5.488281 -6.210938 5.84375 -6.515625 C 6.195312 -6.816406 6.375 -7.191406 6.375 -7.640625 C 6.375 -8.140625 6.21875 -8.507812 5.90625 -8.75 C 5.601562 -8.988281 5.125 -9.109375 4.46875 -9.109375 L 2.96875 -9.109375 L 2.96875 -6.0625 Z M 4.9375 -1.375 C 5.53125 -1.375 5.988281 -1.523438 6.3125 -1.828125 C 6.644531 -2.140625 6.8125 -2.566406 6.8125 -3.109375 C 6.8125 -3.609375 6.628906 -3.992188 6.265625 -4.265625 C 5.910156 -4.546875 5.382812 -4.6875 4.6875 -4.6875 L 2.96875 -4.6875 L 2.96875 -1.375 Z M 4.9375 -1.375 "/></g></g></g><g fill="#8f8f8f" fill-opacity="1"><g transform="translate(184.850338, 244.855897)"><g><path d="M 1.3125 0.03125 C 0.863281 0.03125 0.640625 -0.09375 0.640625 -0.34375 L 0.640625 -1.4375 C 0.640625 -1.6875 0.863281 -1.8125 1.3125 -1.8125 L 1.640625 -1.8125 C 2.109375 -1.8125 2.34375 -1.6875 2.34375 -1.4375 L 2.34375 -0.34375 C 2.34375 -0.09375 2.109375 0.03125 1.640625 0.03125 Z M 1.3125 0.03125 "/></g></g></g><g fill="#8f8f8f" fill-opacity="1"><g transform="translate(188.969295, 244.855897)"><g><path d="M 1.859375 0 C 1.691406 0 1.566406 -0.0351562 1.484375 -0.109375 C 1.398438 -0.191406 1.359375 -0.320312 1.359375 -0.5 L 1.359375 -10.140625 C 1.359375 -10.390625 1.585938 -10.515625 2.046875 -10.515625 L 2.28125 -10.515625 C 2.738281 -10.515625 2.96875 -10.390625 2.96875 -10.140625 L 2.96875 -1.375 L 6.828125 -1.375 C 6.953125 -1.375 7.039062 -1.332031 7.09375 -1.25 C 7.144531 -1.164062 7.171875 -1.03125 7.171875 -0.84375 L 7.171875 -0.546875 C 7.171875 -0.347656 7.144531 -0.207031 7.09375 -0.125 C 7.039062 -0.0390625 6.953125 0 6.828125 0 Z M 1.859375 0 "/></g></g></g><g fill="#8f8f8f" fill-opacity="1"><g transform="translate(197.371547, 244.855897)"><g><path d="M 4.078125 0.03125 C 3.617188 0.03125 3.390625 -0.09375 3.390625 -0.34375 L 3.390625 -5.28125 L 0.296875 -9.953125 C 0.210938 -10.066406 0.171875 -10.164062 0.171875 -10.25 C 0.171875 -10.425781 0.421875 -10.515625 0.921875 -10.515625 L 1.25 -10.515625 C 1.4375 -10.515625 1.582031 -10.5 1.6875 -10.46875 C 1.800781 -10.4375 1.890625 -10.375 1.953125 -10.28125 L 4.21875 -6.734375 L 6.546875 -10.296875 C 6.648438 -10.441406 6.898438 -10.515625 7.296875 -10.515625 L 7.515625 -10.515625 C 7.984375 -10.503906 8.21875 -10.414062 8.21875 -10.25 C 8.21875 -10.175781 8.175781 -10.078125 8.09375 -9.953125 L 4.984375 -5.234375 L 4.984375 -0.34375 C 4.984375 -0.09375 4.753906 0.03125 4.296875 0.03125 Z M 4.078125 0.03125 "/></g></g></g><g fill="#8f8f8f" fill-opacity="1"><g transform="translate(206.897047, 244.855897)"><g><path d="M 1.953125 0.03125 C 1.492188 0.03125 1.265625 -0.09375 1.265625 -0.34375 L 1.265625 -10.140625 C 1.265625 -10.390625 1.492188 -10.515625 1.953125 -10.515625 L 2.359375 -10.515625 C 2.535156 -10.515625 2.679688 -10.492188 2.796875 -10.453125 C 2.910156 -10.410156 3.007812 -10.328125 3.09375 -10.203125 L 7.40625 -3.640625 C 7.582031 -3.378906 7.75 -3.082031 7.90625 -2.75 L 7.96875 -2.765625 C 7.945312 -2.992188 7.9375 -3.335938 7.9375 -3.796875 L 7.9375 -10.140625 C 7.9375 -10.390625 8.164062 -10.515625 8.625 -10.515625 L 8.828125 -10.515625 C 9.285156 -10.515625 9.515625 -10.390625 9.515625 -10.140625 L 9.515625 -0.34375 C 9.515625 -0.09375 9.285156 0.03125 8.828125 0.03125 L 8.453125 0.03125 C 8.285156 0.03125 8.148438 0.0078125 8.046875 -0.03125 C 7.941406 -0.0703125 7.859375 -0.140625 7.796875 -0.234375 L 3.375 -6.9375 C 3.195312 -7.175781 3.023438 -7.476562 2.859375 -7.84375 L 2.796875 -7.828125 C 2.816406 -7.597656 2.828125 -7.253906 2.828125 -6.796875 L 2.828125 -0.34375 C 2.828125 -0.09375 2.597656 0.03125 2.140625 0.03125 Z M 1.953125 0.03125 "/></g></g></g><g fill="#8f8f8f" fill-opacity="1"><g transform="translate(218.818792, 244.855897)"><g><path d="M 5.671875 0.109375 C 4.003906 0.109375 2.773438 -0.320312 1.984375 -1.1875 C 1.203125 -2.0625 0.8125 -3.421875 0.8125 -5.265625 C 0.8125 -8.816406 2.4375 -10.59375 5.6875 -10.59375 C 6.175781 -10.59375 6.660156 -10.539062 7.140625 -10.4375 C 7.617188 -10.332031 7.992188 -10.203125 8.265625 -10.046875 C 8.515625 -9.890625 8.640625 -9.75 8.640625 -9.625 C 8.640625 -9.457031 8.5625 -9.242188 8.40625 -8.984375 C 8.257812 -8.722656 8.125 -8.59375 8 -8.59375 C 7.96875 -8.59375 7.84375 -8.648438 7.625 -8.765625 C 7.40625 -8.878906 7.132812 -8.976562 6.8125 -9.0625 C 6.5 -9.15625 6.128906 -9.203125 5.703125 -9.203125 C 4.597656 -9.203125 3.78125 -8.882812 3.25 -8.25 C 2.71875 -7.613281 2.453125 -6.613281 2.453125 -5.25 C 2.453125 -3.894531 2.710938 -2.894531 3.234375 -2.25 C 3.765625 -1.601562 4.578125 -1.28125 5.671875 -1.28125 C 6.148438 -1.28125 6.5625 -1.335938 6.90625 -1.453125 C 7.257812 -1.566406 7.59375 -1.703125 7.90625 -1.859375 C 8.050781 -1.941406 8.148438 -1.984375 8.203125 -1.984375 C 8.285156 -1.984375 8.375 -1.921875 8.46875 -1.796875 C 8.5625 -1.671875 8.644531 -1.53125 8.71875 -1.375 C 8.789062 -1.21875 8.828125 -1.101562 8.828125 -1.03125 C 8.828125 -0.832031 8.660156 -0.648438 8.328125 -0.484375 C 8.023438 -0.304688 7.628906 -0.160156 7.140625 -0.046875 C 6.648438 0.0546875 6.160156 0.109375 5.671875 0.109375 Z M 5.671875 0.109375 "/></g></g></g><g fill="#8f8f8f" fill-opacity="1"><g transform="translate(229.242883, 244.855897)"><g><path d="M 2.046875 0.03125 C 1.585938 0.03125 1.359375 -0.09375 1.359375 -0.34375 L 1.359375 -10.140625 C 1.359375 -10.390625 1.585938 -10.515625 2.046875 -10.515625 L 2.296875 -10.515625 C 2.742188 -10.515625 2.96875 -10.390625 2.96875 -10.140625 L 2.96875 -6.0625 L 8 -6.0625 L 8 -10.140625 C 8 -10.390625 8.226562 -10.515625 8.6875 -10.515625 L 8.921875 -10.515625 C 9.378906 -10.515625 9.609375 -10.390625 9.609375 -10.140625 L 9.609375 -0.34375 C 9.609375 -0.09375 9.378906 0.03125 8.921875 0.03125 L 8.6875 0.03125 C 8.226562 0.03125 8 -0.09375 8 -0.34375 L 8 -4.671875 L 2.96875 -4.671875 L 2.96875 -0.34375 C 2.96875 -0.09375 2.742188 0.03125 2.296875 0.03125 Z M 2.046875 0.03125 "/></g></g></g><path stroke-linecap="butt" transform="matrix(0.75, 0, 0, 0.75, 75.613725, 230.605898)" fill="none" stroke-linejoin="miter" d="M 81.129622 19.140054 C 80.619205 19.140054 80.13483 19.087971 79.66608 18.978596 C 79.202538 18.874429 78.968163 18.686929 78.968163 18.421304 C 78.968163 18.223388 79.020247 17.952554 79.119205 17.614013 C 79.218163 17.275471 79.358788 17.103596 79.530663 17.103596 C 79.598372 17.103596 79.749413 17.129638 79.97858 17.186929 C 80.212955 17.239013 80.468163 17.265054 80.749413 17.265054 C 81.613997 17.265054 82.244205 17.082763 82.63483 16.712971 C 83.030664 16.348388 83.223372 15.749429 83.223372 14.926512 L 83.223372 5.478595 C 83.223372 5.15047 83.525455 4.983803 84.124414 4.983803 L 84.442122 4.983803 C 85.056705 4.983803 85.358789 5.15047 85.358789 5.478595 L 85.358789 14.926512 C 85.358789 16.244221 85.015039 17.275471 84.332747 18.025471 C 83.645247 18.770263 82.577539 19.140054 81.129622 19.140054 Z M 89.593164 19.041096 C 88.952539 19.041096 88.634831 18.921304 88.634831 18.676513 C 88.634831 18.598388 88.655664 18.494221 88.697331 18.358804 L 93.327539 5.317137 C 93.405664 5.093178 93.707748 4.983803 94.228581 4.983803 L 94.926498 4.983803 C 95.447331 4.983803 95.744206 5.093178 95.822331 5.317137 L 100.457748 18.379638 C 100.499415 18.499429 100.520248 18.598388 100.520248 18.676513 C 100.520248 18.921304 100.218165 19.041096 99.619206 19.041096 L 99.259831 19.041096 C 98.754623 19.041096 98.45254 18.926513 98.363998 18.702554 L 97.306706 15.666096 L 91.770248 15.666096 L 90.733789 18.702554 C 90.640039 18.926513 90.358789 19.041096 89.895247 19.041096 Z M 96.660873 13.827554 L 94.848373 8.55672 C 94.791081 8.36922 94.744206 8.15047 94.697331 7.90047 C 94.650456 7.645262 94.613998 7.46297 94.582748 7.358804 L 94.546289 7.358804 C 94.442123 7.916095 94.343164 8.317137 94.249414 8.55672 L 92.410873 13.827554 Z M 109.780665 19.140054 C 107.572332 19.140054 105.942123 18.561929 104.884832 17.405679 C 103.837957 16.244221 103.311915 14.442137 103.311915 11.989012 C 103.311915 7.249429 105.48379 4.879637 109.822332 4.879637 C 110.473374 4.879637 111.119207 4.952553 111.749415 5.08797 C 112.379624 5.228595 112.884832 5.405678 113.259832 5.61922 C 113.587957 5.822345 113.754624 6.004637 113.754624 6.176512 C 113.754624 6.390054 113.650457 6.671304 113.442124 7.020262 C 113.238999 7.364012 113.056707 7.535887 112.895249 7.535887 C 112.858791 7.535887 112.692124 7.46297 112.400457 7.317137 C 112.108791 7.171304 111.749415 7.041095 111.322332 6.916095 C 110.895249 6.796304 110.405665 6.739012 109.848374 6.739012 C 108.369207 6.739012 107.275457 7.160887 106.567123 8.004637 C 105.863998 8.848387 105.509832 10.186929 105.509832 12.009846 C 105.509832 13.806721 105.85879 15.140054 106.561915 16.004638 C 107.259832 16.869221 108.332749 17.301513 109.780665 17.301513 C 110.42129 17.301513 110.973374 17.228596 111.442124 17.072346 C 111.905666 16.921304 112.353582 16.739013 112.780666 16.525471 C 112.968166 16.416096 113.093166 16.364013 113.160874 16.364013 C 113.280666 16.364013 113.400457 16.447346 113.525457 16.614013 C 113.655666 16.780679 113.765041 16.968179 113.858791 17.176513 C 113.952541 17.379638 113.999416 17.530679 113.999416 17.619221 C 113.999416 17.884846 113.780666 18.134846 113.337957 18.358804 C 112.936916 18.587971 112.410874 18.775471 111.754624 18.921304 C 111.10879 19.067138 110.447332 19.140054 109.780665 19.140054 Z M 123.421291 19.140054 C 121.416083 19.140054 119.874416 18.530679 118.811916 17.301513 C 117.744208 16.077554 117.212958 14.306721 117.212958 11.989012 C 117.212958 9.660887 117.744208 7.895262 118.811916 6.686929 C 119.874416 5.483803 121.416083 4.879637 123.421291 4.879637 C 125.462958 4.879637 127.009833 5.483803 128.061917 6.686929 C 129.124417 7.895262 129.655667 9.660887 129.655667 11.989012 C 129.655667 14.317137 129.119208 16.093179 128.056708 17.311929 C 126.994208 18.530679 125.447333 19.140054 123.421291 19.140054 Z M 123.421291 17.301513 C 124.728583 17.301513 125.723375 16.853596 126.416083 15.947346 C 127.108792 15.041096 127.452542 13.723387 127.452542 11.989012 C 127.452542 10.259845 127.114 8.952554 126.4265 8.067137 C 125.744208 7.18172 124.744208 6.739012 123.421291 6.739012 C 122.108791 6.739012 121.108791 7.18172 120.431708 8.067137 C 119.749416 8.952554 119.410874 10.259845 119.410874 11.989012 C 119.410874 13.723387 119.754624 15.041096 120.436916 15.947346 C 121.124416 16.853596 122.119208 17.301513 123.421291 17.301513 Z M 134.744209 18.999429 C 134.52025 18.999429 134.353584 18.947346 134.244209 18.837971 C 134.140042 18.733804 134.087959 18.567138 134.087959 18.343179 L 134.087959 5.68172 C 134.087959 5.452553 134.140042 5.285887 134.244209 5.18172 C 134.353584 5.077553 134.52025 5.020262 134.744209 5.020262 L 138.421292 5.020262 C 139.921292 5.020262 141.056709 5.33797 141.822334 5.973387 C 142.587959 6.603595 142.973376 7.46297 142.973376 8.55672 C 142.973376 9.207762 142.754626 9.827554 142.322334 10.426512 C 141.890042 11.015054 141.374417 11.405679 140.775459 11.587971 L 140.796292 11.671304 C 141.051501 11.723387 141.395251 11.874429 141.827542 12.119221 C 142.259834 12.369221 142.650459 12.733804 143.009834 13.212971 C 143.369209 13.692137 143.551501 14.275471 143.551501 14.968179 C 143.551501 17.655679 141.832751 18.999429 138.395251 18.999429 Z M 138.259834 10.910887 C 138.994209 10.910887 139.593167 10.71297 140.056709 10.311929 C 140.525459 9.910887 140.759834 9.410887 140.759834 8.817137 C 140.759834 8.15047 140.556709 7.655679 140.150459 7.33797 C 139.744209 7.020262 139.098376 6.858804 138.223376 6.858804 L 136.223375 6.858804 L 136.223375 10.910887 Z M 138.858792 17.160888 C 139.645251 17.160888 140.254626 16.957763 140.692126 16.551513 C 141.134834 16.145263 141.358792 15.582762 141.358792 14.864012 C 141.358792 14.186929 141.119209 13.666096 140.634834 13.301512 C 140.155667 12.931721 139.452542 12.749429 138.520251 12.749429 L 136.223375 12.749429 L 136.223375 17.160888 Z M 147.405668 19.041096 C 146.806709 19.041096 146.504626 18.874429 146.504626 18.541096 L 146.504626 17.082763 C 146.504626 16.749429 146.806709 16.582763 147.405668 16.582763 L 147.848376 16.582763 C 148.457751 16.582763 148.765043 16.749429 148.765043 17.082763 L 148.765043 18.541096 C 148.765043 18.874429 148.457751 19.041096 147.848376 19.041096 Z M 153.61921 18.999429 C 153.390043 18.999429 153.223377 18.947346 153.114002 18.837971 C 153.009835 18.733804 152.957752 18.567138 152.957752 18.343179 L 152.957752 5.478595 C 152.957752 5.15047 153.265043 4.983803 153.874418 4.983803 L 154.176502 4.983803 C 154.791085 4.983803 155.093168 5.15047 155.093168 5.478595 L 155.093168 17.160888 L 160.249419 17.160888 C 160.405669 17.160888 160.520252 17.218179 160.593169 17.332763 C 160.671294 17.447346 160.707752 17.629638 160.707752 17.884846 L 160.707752 18.285888 C 160.707752 18.535888 160.671294 18.718179 160.593169 18.827554 C 160.520252 18.942138 160.405669 18.999429 160.249419 18.999429 Z M 167.775461 19.041096 C 167.166086 19.041096 166.858794 18.874429 166.858794 18.541096 L 166.858794 11.968179 L 162.744211 5.739012 C 162.624419 5.577553 162.561919 5.447345 162.561919 5.33797 C 162.561919 5.103595 162.900461 4.983803 163.582752 4.983803 L 163.999419 4.983803 C 164.254627 4.983803 164.452544 5.004637 164.603586 5.051512 C 164.749419 5.098387 164.858794 5.18172 164.936919 5.301512 L 167.973378 10.035887 L 171.072336 5.280678 C 171.202544 5.082762 171.535878 4.983803 172.072336 4.983803 L 172.369211 4.983803 C 172.983795 4.99422 173.291086 5.114012 173.291086 5.33797 C 173.291086 5.43172 173.233795 5.567137 173.129628 5.739012 L 168.994211 12.025471 L 168.994211 18.541096 C 168.994211 18.874429 168.686919 19.041096 168.077544 19.041096 Z M 177.640045 19.041096 C 177.025461 19.041096 176.723378 18.874429 176.723378 18.541096 L 176.723378 5.478595 C 176.723378 5.15047 177.025461 4.983803 177.640045 4.983803 L 178.181712 4.983803 C 178.421295 4.983803 178.614003 5.009845 178.770253 5.072345 C 178.921295 5.129637 179.051503 5.239012 179.160878 5.40047 L 184.90567 14.150471 C 185.150462 14.494221 185.37442 14.884846 185.587962 15.322346 L 185.666087 15.306721 C 185.640045 14.999429 185.629629 14.546304 185.629629 13.947346 L 185.629629 5.478595 C 185.629629 5.15047 185.93692 4.983803 186.546295 4.983803 L 186.806712 4.983803 C 187.421295 4.983803 187.723379 5.15047 187.723379 5.478595 L 187.723379 18.541096 C 187.723379 18.874429 187.421295 19.041096 186.806712 19.041096 L 186.306712 19.041096 C 186.082754 19.041096 185.90567 19.015054 185.770254 18.962971 C 185.634837 18.905679 185.525462 18.811929 185.431712 18.676513 L 179.541087 9.754637 C 179.31192 9.43172 179.082753 9.035887 178.858795 8.55672 L 178.78067 8.577554 C 178.806712 8.879637 178.817128 9.332762 178.817128 9.93172 L 178.817128 18.541096 C 178.817128 18.874429 178.515045 19.041096 177.900462 19.041096 Z M 198.489005 19.140054 C 196.275463 19.140054 194.645254 18.561929 193.593171 17.405679 C 192.541087 16.244221 192.015046 14.442137 192.015046 11.989012 C 192.015046 7.249429 194.186921 4.879637 198.525463 4.879637 C 199.181713 4.879637 199.822338 4.952553 200.452546 5.08797 C 201.087963 5.228595 201.587963 5.405678 201.962963 5.61922 C 202.296296 5.822345 202.462963 6.004637 202.462963 6.176512 C 202.462963 6.390054 202.358796 6.671304 202.150463 7.020262 C 201.94213 7.364012 201.759838 7.535887 201.603588 7.535887 C 201.561921 7.535887 201.400463 7.46297 201.103588 7.317137 C 200.811921 7.171304 200.452546 7.041095 200.025463 6.916095 C 199.603588 6.796304 199.108796 6.739012 198.551505 6.739012 C 197.072338 6.739012 195.978588 7.160887 195.275463 8.004637 C 194.567129 8.848387 194.218171 10.186929 194.218171 12.009846 C 194.218171 13.806721 194.567129 15.140054 195.265046 16.004638 C 195.962963 16.869221 197.035879 17.301513 198.489005 17.301513 C 199.12963 17.301513 199.681713 17.228596 200.145255 17.072346 C 200.614005 16.921304 201.061921 16.739013 201.483796 16.525471 C 201.671296 16.416096 201.796296 16.364013 201.864005 16.364013 C 201.983796 16.364013 202.103588 16.447346 202.233796 16.614013 C 202.358796 16.780679 202.468171 16.968179 202.561921 17.176513 C 202.655671 17.379638 202.702546 17.530679 202.702546 17.619221 C 202.702546 17.884846 202.483796 18.134846 202.041088 18.358804 C 201.640046 18.587971 201.114005 18.775471 200.462963 18.921304 C 199.811921 19.067138 199.155671 19.140054 198.489005 19.140054 Z M 207.572338 19.041096 C 206.962963 19.041096 206.655672 18.874429 206.655672 18.541096 L 206.655672 5.478595 C 206.655672 5.15047 206.962963 4.983803 207.572338 4.983803 L 207.895255 4.983803 C 208.494214 4.983803 208.791089 5.15047 208.791089 5.478595 L 208.791089 10.910887 L 215.499422 10.910887 L 215.499422 5.478595 C 215.499422 5.15047 215.806714 4.983803 216.421297 4.983803 L 216.718172 4.983803 C 217.332756 4.983803 217.640047 5.15047 217.640047 5.478595 L 217.640047 18.541096 C 217.640047 18.874429 217.332756 19.041096 216.718172 19.041096 L 216.421297 19.041096 C 215.806714 19.041096 215.499422 18.874429 215.499422 18.541096 L 215.499422 12.770262 L 208.791089 12.770262 L 208.791089 18.541096 C 208.791089 18.874429 208.494214 19.041096 207.895255 19.041096 Z M 207.572338 19.041096 " stroke="#1e1e1e" stroke-width="0.137333" stroke-opacity="1" stroke-miterlimit="4"/><g fill="#5271ff" fill-opacity="1"><g transform="translate(98.922317, 271.558693)"><g><path d="M 3.65625 0.09375 C 3.050781 0.09375 2.492188 0.0234375 1.984375 -0.109375 C 1.484375 -0.253906 1.101562 -0.425781 0.84375 -0.625 C 0.644531 -0.769531 0.546875 -0.894531 0.546875 -1 C 0.546875 -1.125 0.613281 -1.289062 0.75 -1.5 C 0.882812 -1.707031 0.992188 -1.8125 1.078125 -1.8125 C 1.117188 -1.8125 1.222656 -1.757812 1.390625 -1.65625 C 1.703125 -1.488281 2.035156 -1.34375 2.390625 -1.21875 C 2.742188 -1.101562 3.164062 -1.046875 3.65625 -1.046875 C 4.238281 -1.046875 4.710938 -1.207031 5.078125 -1.53125 C 5.441406 -1.851562 5.625 -2.28125 5.625 -2.8125 C 5.625 -3.1875 5.519531 -3.492188 5.3125 -3.734375 C 5.113281 -3.984375 4.875 -4.179688 4.59375 -4.328125 C 4.3125 -4.472656 3.898438 -4.648438 3.359375 -4.859375 C 2.773438 -5.085938 2.3125 -5.296875 1.96875 -5.484375 C 1.632812 -5.671875 1.347656 -5.953125 1.109375 -6.328125 C 0.867188 -6.703125 0.75 -7.195312 0.75 -7.8125 C 0.75 -8.34375 0.882812 -8.816406 1.15625 -9.234375 C 1.4375 -9.660156 1.828125 -9.988281 2.328125 -10.21875 C 2.835938 -10.457031 3.421875 -10.578125 4.078125 -10.578125 C 4.410156 -10.578125 4.785156 -10.53125 5.203125 -10.4375 C 5.628906 -10.34375 5.957031 -10.210938 6.1875 -10.046875 C 6.382812 -9.929688 6.484375 -9.804688 6.484375 -9.671875 C 6.484375 -9.554688 6.421875 -9.394531 6.296875 -9.1875 C 6.171875 -8.976562 6.078125 -8.875 6.015625 -8.875 C 5.960938 -8.875 5.890625 -8.894531 5.796875 -8.9375 C 5.703125 -8.988281 5.640625 -9.023438 5.609375 -9.046875 C 5.109375 -9.304688 4.585938 -9.4375 4.046875 -9.4375 C 3.460938 -9.4375 2.992188 -9.285156 2.640625 -8.984375 C 2.285156 -8.691406 2.109375 -8.28125 2.109375 -7.75 C 2.109375 -7.40625 2.195312 -7.128906 2.375 -6.921875 C 2.550781 -6.710938 2.75 -6.554688 2.96875 -6.453125 C 3.195312 -6.347656 3.59375 -6.1875 4.15625 -5.96875 C 4.75 -5.738281 5.234375 -5.515625 5.609375 -5.296875 C 5.992188 -5.078125 6.316406 -4.765625 6.578125 -4.359375 C 6.847656 -3.960938 6.984375 -3.445312 6.984375 -2.8125 C 6.984375 -1.914062 6.679688 -1.207031 6.078125 -0.6875 C 5.484375 -0.164062 4.675781 0.09375 3.65625 0.09375 Z M 3.65625 0.09375 "/></g></g></g><g fill="#5271ff" fill-opacity="1"><g transform="translate(107.564195, 271.558693)"><g><path d="M 5.46875 0.09375 C 3.96875 0.09375 2.820312 -0.363281 2.03125 -1.28125 C 1.25 -2.195312 0.859375 -3.53125 0.859375 -5.28125 C 0.859375 -7.019531 1.25 -8.335938 2.03125 -9.234375 C 2.8125 -10.128906 3.957031 -10.578125 5.46875 -10.578125 C 6.976562 -10.578125 8.125 -10.128906 8.90625 -9.234375 C 9.695312 -8.335938 10.09375 -7.019531 10.09375 -5.28125 C 10.09375 -3.53125 9.695312 -2.195312 8.90625 -1.28125 C 8.125 -0.363281 6.976562 0.09375 5.46875 0.09375 Z M 5.46875 -1.046875 C 6.53125 -1.046875 7.335938 -1.40625 7.890625 -2.125 C 8.453125 -2.84375 8.734375 -3.894531 8.734375 -5.28125 C 8.734375 -6.644531 8.453125 -7.675781 7.890625 -8.375 C 7.335938 -9.082031 6.53125 -9.4375 5.46875 -9.4375 C 4.40625 -9.4375 3.597656 -9.082031 3.046875 -8.375 C 2.492188 -7.675781 2.21875 -6.644531 2.21875 -5.28125 C 2.21875 -3.894531 2.492188 -2.84375 3.046875 -2.125 C 3.597656 -1.40625 4.40625 -1.046875 5.46875 -1.046875 Z M 5.46875 -1.046875 "/></g></g></g><g fill="#5271ff" fill-opacity="1"><g transform="translate(119.665657, 271.558693)"><g><path d="M 2.046875 0.03125 C 1.648438 0.03125 1.453125 -0.078125 1.453125 -0.296875 L 1.453125 -10.046875 C 1.453125 -10.203125 1.484375 -10.3125 1.546875 -10.375 C 1.617188 -10.445312 1.738281 -10.484375 1.90625 -10.484375 L 6.625 -10.484375 C 6.726562 -10.484375 6.800781 -10.445312 6.84375 -10.375 C 6.894531 -10.3125 6.921875 -10.203125 6.921875 -10.046875 L 6.921875 -9.796875 C 6.921875 -9.640625 6.894531 -9.523438 6.84375 -9.453125 C 6.800781 -9.378906 6.726562 -9.34375 6.625 -9.34375 L 2.765625 -9.34375 L 2.765625 -5.9375 L 6.359375 -5.9375 C 6.460938 -5.9375 6.535156 -5.898438 6.578125 -5.828125 C 6.628906 -5.753906 6.65625 -5.640625 6.65625 -5.484375 L 6.65625 -5.25 C 6.65625 -5.082031 6.628906 -4.960938 6.578125 -4.890625 C 6.535156 -4.828125 6.460938 -4.796875 6.359375 -4.796875 L 2.765625 -4.796875 L 2.765625 -0.296875 C 2.765625 -0.078125 2.566406 0.03125 2.171875 0.03125 Z M 2.046875 0.03125 "/></g></g></g><g fill="#5271ff" fill-opacity="1"><g transform="translate(128.352463, 271.558693)"><g><path d="M 4.078125 0.03125 C 3.671875 0.03125 3.46875 -0.078125 3.46875 -0.296875 L 3.46875 -9.34375 L 0.59375 -9.34375 C 0.5 -9.34375 0.425781 -9.378906 0.375 -9.453125 C 0.320312 -9.523438 0.296875 -9.640625 0.296875 -9.796875 L 0.296875 -10.046875 C 0.296875 -10.203125 0.320312 -10.3125 0.375 -10.375 C 0.425781 -10.445312 0.5 -10.484375 0.59375 -10.484375 L 7.625 -10.484375 C 7.738281 -10.484375 7.816406 -10.445312 7.859375 -10.375 C 7.898438 -10.3125 7.921875 -10.203125 7.921875 -10.046875 L 7.921875 -9.796875 C 7.921875 -9.640625 7.898438 -9.523438 7.859375 -9.453125 C 7.816406 -9.378906 7.738281 -9.34375 7.625 -9.34375 L 4.796875 -9.34375 L 4.796875 -0.296875 C 4.796875 -0.078125 4.597656 0.03125 4.203125 0.03125 Z M 4.078125 0.03125 "/></g></g></g><g fill="#5271ff" fill-opacity="1"><g transform="translate(137.728192, 271.558693)"><g><path d="M 3.4375 0.03125 C 3.070312 0.03125 2.867188 -0.046875 2.828125 -0.203125 L 0.265625 -10.046875 C 0.234375 -10.171875 0.21875 -10.242188 0.21875 -10.265625 C 0.21875 -10.429688 0.4375 -10.515625 0.875 -10.515625 L 1.015625 -10.515625 C 1.378906 -10.515625 1.582031 -10.4375 1.625 -10.28125 L 3.515625 -2.90625 C 3.566406 -2.71875 3.625 -2.453125 3.6875 -2.109375 C 3.75 -1.765625 3.785156 -1.566406 3.796875 -1.515625 L 4.15625 -2.953125 L 5.96875 -10.265625 C 6.007812 -10.429688 6.203125 -10.515625 6.546875 -10.515625 L 6.78125 -10.515625 C 7.132812 -10.515625 7.332031 -10.429688 7.375 -10.265625 L 9.234375 -2.890625 C 9.285156 -2.671875 9.335938 -2.40625 9.390625 -2.09375 C 9.441406 -1.789062 9.472656 -1.597656 9.484375 -1.515625 L 9.84375 -2.9375 L 11.65625 -10.28125 C 11.695312 -10.4375 11.894531 -10.515625 12.25 -10.515625 L 12.34375 -10.515625 C 12.769531 -10.515625 12.984375 -10.429688 12.984375 -10.265625 L 12.953125 -10.046875 L 10.359375 -0.203125 C 10.316406 -0.046875 10.113281 0.03125 9.75 0.03125 L 9.140625 0.03125 C 8.773438 0.03125 8.578125 -0.046875 8.546875 -0.203125 L 6.90625 -6.3125 L 6.59375 -8.25 L 6.28125 -6.3125 L 4.640625 -0.203125 C 4.597656 -0.046875 4.398438 0.03125 4.046875 0.03125 Z M 3.4375 0.03125 "/></g></g></g><g fill="#5271ff" fill-opacity="1"><g transform="translate(152.091119, 271.558693)"><g><path d="M 0.828125 0.03125 C 0.398438 0.03125 0.1875 -0.0507812 0.1875 -0.21875 C 0.1875 -0.269531 0.195312 -0.34375 0.21875 -0.4375 L 3.78125 -10.28125 C 3.832031 -10.4375 4.03125 -10.515625 4.375 -10.515625 L 4.8125 -10.515625 C 5.164062 -10.515625 5.363281 -10.4375 5.40625 -10.28125 L 8.953125 -0.421875 C 8.984375 -0.347656 9 -0.28125 9 -0.21875 C 9 -0.0507812 8.785156 0.03125 8.359375 0.03125 L 8.234375 0.03125 C 7.890625 0.03125 7.691406 -0.046875 7.640625 -0.203125 L 6.765625 -2.671875 L 2.359375 -2.671875 L 1.5 -0.203125 C 1.445312 -0.046875 1.25 0.03125 0.90625 0.03125 Z M 6.359375 -3.8125 L 4.78125 -8.265625 C 4.726562 -8.429688 4.664062 -8.722656 4.59375 -9.140625 L 4.5625 -9.140625 C 4.488281 -8.742188 4.414062 -8.453125 4.34375 -8.265625 L 2.765625 -3.8125 Z M 6.359375 -3.8125 "/></g></g></g><g fill="#5271ff" fill-opacity="1"><g transform="translate(162.42535, 271.558693)"><g><path d="M 2.046875 0.03125 C 1.648438 0.03125 1.453125 -0.078125 1.453125 -0.296875 L 1.453125 -10.046875 C 1.453125 -10.203125 1.484375 -10.3125 1.546875 -10.375 C 1.617188 -10.445312 1.738281 -10.484375 1.90625 -10.484375 L 4.421875 -10.484375 C 5.617188 -10.484375 6.519531 -10.269531 7.125 -9.84375 C 7.726562 -9.425781 8.03125 -8.757812 8.03125 -7.84375 C 8.03125 -7.21875 7.878906 -6.691406 7.578125 -6.265625 C 7.273438 -5.847656 6.851562 -5.523438 6.3125 -5.296875 L 6.3125 -5.25 C 6.601562 -5.144531 6.84375 -4.945312 7.03125 -4.65625 C 7.226562 -4.363281 7.4375 -3.9375 7.65625 -3.375 L 8.828125 -0.421875 C 8.859375 -0.328125 8.875 -0.253906 8.875 -0.203125 C 8.875 -0.046875 8.660156 0.03125 8.234375 0.03125 L 8.09375 0.03125 C 7.9375 0.03125 7.800781 0.0078125 7.6875 -0.03125 C 7.582031 -0.0820312 7.515625 -0.140625 7.484375 -0.203125 L 6.359375 -3.140625 C 6.140625 -3.710938 5.863281 -4.097656 5.53125 -4.296875 C 5.195312 -4.503906 4.726562 -4.609375 4.125 -4.609375 L 2.765625 -4.609375 L 2.765625 -0.296875 C 2.765625 -0.078125 2.566406 0.03125 2.171875 0.03125 Z M 4.75 -5.75 C 5.101562 -5.75 5.425781 -5.832031 5.71875 -6 C 6.007812 -6.175781 6.238281 -6.40625 6.40625 -6.6875 C 6.582031 -6.96875 6.671875 -7.269531 6.671875 -7.59375 C 6.671875 -8.1875 6.488281 -8.625 6.125 -8.90625 C 5.769531 -9.195312 5.273438 -9.34375 4.640625 -9.34375 L 2.765625 -9.34375 L 2.765625 -5.75 Z M 4.75 -5.75 "/></g></g></g><g fill="#5271ff" fill-opacity="1"><g transform="translate(172.714653, 271.558693)"><g><path d="M 1.90625 0 C 1.738281 0 1.617188 -0.03125 1.546875 -0.09375 C 1.484375 -0.164062 1.453125 -0.285156 1.453125 -0.453125 L 1.453125 -10.046875 C 1.453125 -10.203125 1.484375 -10.3125 1.546875 -10.375 C 1.617188 -10.445312 1.738281 -10.484375 1.90625 -10.484375 L 7.125 -10.484375 C 7.238281 -10.484375 7.316406 -10.445312 7.359375 -10.375 C 7.410156 -10.3125 7.4375 -10.203125 7.4375 -10.046875 L 7.4375 -9.796875 C 7.4375 -9.640625 7.410156 -9.523438 7.359375 -9.453125 C 7.316406 -9.378906 7.238281 -9.34375 7.125 -9.34375 L 2.765625 -9.34375 L 2.765625 -5.9375 L 6.6875 -5.9375 C 6.789062 -5.9375 6.863281 -5.898438 6.90625 -5.828125 C 6.957031 -5.753906 6.984375 -5.640625 6.984375 -5.484375 L 6.984375 -5.25 C 6.984375 -5.082031 6.957031 -4.960938 6.90625 -4.890625 C 6.863281 -4.828125 6.789062 -4.796875 6.6875 -4.796875 L 2.765625 -4.796875 L 2.765625 -1.140625 L 7.140625 -1.140625 C 7.253906 -1.140625 7.332031 -1.101562 7.375 -1.03125 C 7.425781 -0.957031 7.453125 -0.84375 7.453125 -0.6875 L 7.453125 -0.453125 C 7.453125 -0.285156 7.425781 -0.164062 7.375 -0.09375 C 7.332031 -0.03125 7.253906 0 7.140625 0 Z M 1.90625 0 "/></g></g></g><g fill="#5271ff" fill-opacity="1"><g transform="translate(182.045455, 271.558693)"><g/></g></g><g fill="#5271ff" fill-opacity="1"><g transform="translate(186.793425, 271.558693)"><g><path d="M 1.90625 0 C 1.738281 0 1.617188 -0.03125 1.546875 -0.09375 C 1.484375 -0.164062 1.453125 -0.285156 1.453125 -0.453125 L 1.453125 -10.046875 C 1.453125 -10.203125 1.484375 -10.3125 1.546875 -10.375 C 1.617188 -10.445312 1.738281 -10.484375 1.90625 -10.484375 L 4.9375 -10.484375 C 6.332031 -10.484375 7.453125 -10.066406 8.296875 -9.234375 C 9.140625 -8.398438 9.5625 -7.070312 9.5625 -5.25 C 9.5625 -3.40625 9.140625 -2.066406 8.296875 -1.234375 C 7.453125 -0.410156 6.332031 0 4.9375 0 Z M 4.828125 -1.140625 C 5.835938 -1.140625 6.648438 -1.46875 7.265625 -2.125 C 7.890625 -2.78125 8.203125 -3.820312 8.203125 -5.25 C 8.203125 -6.65625 7.890625 -7.6875 7.265625 -8.34375 C 6.648438 -9.007812 5.835938 -9.34375 4.828125 -9.34375 L 2.765625 -9.34375 L 2.765625 -1.140625 Z M 4.828125 -1.140625 "/></g></g></g><g fill="#5271ff" fill-opacity="1"><g transform="translate(198.355734, 271.558693)"><g><path d="M 1.90625 0 C 1.738281 0 1.617188 -0.03125 1.546875 -0.09375 C 1.484375 -0.164062 1.453125 -0.285156 1.453125 -0.453125 L 1.453125 -10.046875 C 1.453125 -10.203125 1.484375 -10.3125 1.546875 -10.375 C 1.617188 -10.445312 1.738281 -10.484375 1.90625 -10.484375 L 7.125 -10.484375 C 7.238281 -10.484375 7.316406 -10.445312 7.359375 -10.375 C 7.410156 -10.3125 7.4375 -10.203125 7.4375 -10.046875 L 7.4375 -9.796875 C 7.4375 -9.640625 7.410156 -9.523438 7.359375 -9.453125 C 7.316406 -9.378906 7.238281 -9.34375 7.125 -9.34375 L 2.765625 -9.34375 L 2.765625 -5.9375 L 6.6875 -5.9375 C 6.789062 -5.9375 6.863281 -5.898438 6.90625 -5.828125 C 6.957031 -5.753906 6.984375 -5.640625 6.984375 -5.484375 L 6.984375 -5.25 C 6.984375 -5.082031 6.957031 -4.960938 6.90625 -4.890625 C 6.863281 -4.828125 6.789062 -4.796875 6.6875 -4.796875 L 2.765625 -4.796875 L 2.765625 -1.140625 L 7.140625 -1.140625 C 7.253906 -1.140625 7.332031 -1.101562 7.375 -1.03125 C 7.425781 -0.957031 7.453125 -0.84375 7.453125 -0.6875 L 7.453125 -0.453125 C 7.453125 -0.285156 7.425781 -0.164062 7.375 -0.09375 C 7.332031 -0.03125 7.253906 0 7.140625 0 Z M 1.90625 0 "/></g></g></g><g fill="#5271ff" fill-opacity="1"><g transform="translate(207.686536, 271.558693)"><g><path d="M 4.390625 0.03125 C 4.035156 0.03125 3.835938 -0.046875 3.796875 -0.203125 L 0.359375 -10.0625 C 0.328125 -10.144531 0.3125 -10.210938 0.3125 -10.265625 C 0.3125 -10.429688 0.523438 -10.515625 0.953125 -10.515625 L 1.09375 -10.515625 C 1.445312 -10.515625 1.644531 -10.4375 1.6875 -10.28125 L 4.46875 -2.28125 L 4.609375 -1.5 L 4.65625 -1.5 L 4.828125 -2.296875 L 7.59375 -10.28125 C 7.644531 -10.4375 7.847656 -10.515625 8.203125 -10.515625 L 8.28125 -10.515625 C 8.71875 -10.515625 8.9375 -10.429688 8.9375 -10.265625 C 8.9375 -10.210938 8.921875 -10.140625 8.890625 -10.046875 L 5.453125 -0.203125 C 5.398438 -0.046875 5.203125 0.03125 4.859375 0.03125 Z M 4.390625 0.03125 "/></g></g></g><g fill="#5271ff" fill-opacity="1"><g transform="translate(218.080677, 271.558693)"><g><path d="M 1.90625 0 C 1.738281 0 1.617188 -0.03125 1.546875 -0.09375 C 1.484375 -0.164062 1.453125 -0.285156 1.453125 -0.453125 L 1.453125 -10.046875 C 1.453125 -10.203125 1.484375 -10.3125 1.546875 -10.375 C 1.617188 -10.445312 1.738281 -10.484375 1.90625 -10.484375 L 7.125 -10.484375 C 7.238281 -10.484375 7.316406 -10.445312 7.359375 -10.375 C 7.410156 -10.3125 7.4375 -10.203125 7.4375 -10.046875 L 7.4375 -9.796875 C 7.4375 -9.640625 7.410156 -9.523438 7.359375 -9.453125 C 7.316406 -9.378906 7.238281 -9.34375 7.125 -9.34375 L 2.765625 -9.34375 L 2.765625 -5.9375 L 6.6875 -5.9375 C 6.789062 -5.9375 6.863281 -5.898438 6.90625 -5.828125 C 6.957031 -5.753906 6.984375 -5.640625 6.984375 -5.484375 L 6.984375 -5.25 C 6.984375 -5.082031 6.957031 -4.960938 6.90625 -4.890625 C 6.863281 -4.828125 6.789062 -4.796875 6.6875 -4.796875 L 2.765625 -4.796875 L 2.765625 -1.140625 L 7.140625 -1.140625 C 7.253906 -1.140625 7.332031 -1.101562 7.375 -1.03125 C 7.425781 -0.957031 7.453125 -0.84375 7.453125 -0.6875 L 7.453125 -0.453125 C 7.453125 -0.285156 7.425781 -0.164062 7.375 -0.09375 C 7.332031 -0.03125 7.253906 0 7.140625 0 Z M 1.90625 0 "/></g></g></g><g fill="#5271ff" fill-opacity="1"><g transform="translate(227.41148, 271.558693)"><g><path d="M 1.90625 0 C 1.738281 0 1.617188 -0.03125 1.546875 -0.09375 C 1.484375 -0.164062 1.453125 -0.285156 1.453125 -0.453125 L 1.453125 -10.1875 C 1.453125 -10.40625 1.648438 -10.515625 2.046875 -10.515625 L 2.171875 -10.515625 C 2.566406 -10.515625 2.765625 -10.40625 2.765625 -10.1875 L 2.765625 -1.140625 L 6.890625 -1.140625 C 7.003906 -1.140625 7.082031 -1.101562 7.125 -1.03125 C 7.164062 -0.957031 7.1875 -0.84375 7.1875 -0.6875 L 7.1875 -0.453125 C 7.1875 -0.285156 7.164062 -0.164062 7.125 -0.09375 C 7.082031 -0.03125 7.003906 0 6.890625 0 Z M 1.90625 0 "/></g></g></g><g fill="#5271ff" fill-opacity="1"><g transform="translate(235.813731, 271.558693)"><g><path d="M 5.46875 0.09375 C 3.96875 0.09375 2.820312 -0.363281 2.03125 -1.28125 C 1.25 -2.195312 0.859375 -3.53125 0.859375 -5.28125 C 0.859375 -7.019531 1.25 -8.335938 2.03125 -9.234375 C 2.8125 -10.128906 3.957031 -10.578125 5.46875 -10.578125 C 6.976562 -10.578125 8.125 -10.128906 8.90625 -9.234375 C 9.695312 -8.335938 10.09375 -7.019531 10.09375 -5.28125 C 10.09375 -3.53125 9.695312 -2.195312 8.90625 -1.28125 C 8.125 -0.363281 6.976562 0.09375 5.46875 0.09375 Z M 5.46875 -1.046875 C 6.53125 -1.046875 7.335938 -1.40625 7.890625 -2.125 C 8.453125 -2.84375 8.734375 -3.894531 8.734375 -5.28125 C 8.734375 -6.644531 8.453125 -7.675781 7.890625 -8.375 C 7.335938 -9.082031 6.53125 -9.4375 5.46875 -9.4375 C 4.40625 -9.4375 3.597656 -9.082031 3.046875 -8.375 C 2.492188 -7.675781 2.21875 -6.644531 2.21875 -5.28125 C 2.21875 -3.894531 2.492188 -2.84375 3.046875 -2.125 C 3.597656 -1.40625 4.40625 -1.046875 5.46875 -1.046875 Z M 5.46875 -1.046875 "/></g></g></g><g fill="#5271ff" fill-opacity="1"><g transform="translate(247.915194, 271.558693)"><g><path d="M 1.875 0.03125 C 1.476562 0.03125 1.28125 -0.078125 1.28125 -0.296875 L 1.28125 -10.046875 C 1.28125 -10.203125 1.3125 -10.3125 1.375 -10.375 C 1.445312 -10.445312 1.5625 -10.484375 1.71875 -10.484375 L 4.765625 -10.484375 C 5.640625 -10.484375 6.414062 -10.273438 7.09375 -9.859375 C 7.769531 -9.441406 8.109375 -8.671875 8.109375 -7.546875 C 8.109375 -6.722656 7.910156 -6.082031 7.515625 -5.625 C 7.128906 -5.164062 6.695312 -4.859375 6.21875 -4.703125 C 5.738281 -4.546875 5.304688 -4.46875 4.921875 -4.46875 L 2.59375 -4.46875 L 2.59375 -0.296875 C 2.59375 -0.078125 2.394531 0.03125 2 0.03125 Z M 4.9375 -5.609375 C 5.363281 -5.609375 5.769531 -5.75 6.15625 -6.03125 C 6.550781 -6.320312 6.75 -6.828125 6.75 -7.546875 C 6.75 -8.222656 6.546875 -8.691406 6.140625 -8.953125 C 5.742188 -9.210938 5.269531 -9.34375 4.71875 -9.34375 L 2.59375 -9.34375 L 2.59375 -5.609375 Z M 4.9375 -5.609375 "/></g></g></g><g fill="#5271ff" fill-opacity="1"><g transform="translate(257.605432, 271.558693)"><g><path d="M 1.90625 0 C 1.738281 0 1.617188 -0.03125 1.546875 -0.09375 C 1.484375 -0.164062 1.453125 -0.285156 1.453125 -0.453125 L 1.453125 -10.046875 C 1.453125 -10.203125 1.484375 -10.3125 1.546875 -10.375 C 1.617188 -10.445312 1.738281 -10.484375 1.90625 -10.484375 L 7.125 -10.484375 C 7.238281 -10.484375 7.316406 -10.445312 7.359375 -10.375 C 7.410156 -10.3125 7.4375 -10.203125 7.4375 -10.046875 L 7.4375 -9.796875 C 7.4375 -9.640625 7.410156 -9.523438 7.359375 -9.453125 C 7.316406 -9.378906 7.238281 -9.34375 7.125 -9.34375 L 2.765625 -9.34375 L 2.765625 -5.9375 L 6.6875 -5.9375 C 6.789062 -5.9375 6.863281 -5.898438 6.90625 -5.828125 C 6.957031 -5.753906 6.984375 -5.640625 6.984375 -5.484375 L 6.984375 -5.25 C 6.984375 -5.082031 6.957031 -4.960938 6.90625 -4.890625 C 6.863281 -4.828125 6.789062 -4.796875 6.6875 -4.796875 L 2.765625 -4.796875 L 2.765625 -1.140625 L 7.140625 -1.140625 C 7.253906 -1.140625 7.332031 -1.101562 7.375 -1.03125 C 7.425781 -0.957031 7.453125 -0.84375 7.453125 -0.6875 L 7.453125 -0.453125 C 7.453125 -0.285156 7.425781 -0.164062 7.375 -0.09375 C 7.332031 -0.03125 7.253906 0 7.140625 0 Z M 1.90625 0 "/></g></g></g><g fill="#5271ff" fill-opacity="1"><g transform="translate(266.936235, 271.558693)"><g><path d="M 2.046875 0.03125 C 1.648438 0.03125 1.453125 -0.078125 1.453125 -0.296875 L 1.453125 -10.046875 C 1.453125 -10.203125 1.484375 -10.3125 1.546875 -10.375 C 1.617188 -10.445312 1.738281 -10.484375 1.90625 -10.484375 L 4.421875 -10.484375 C 5.617188 -10.484375 6.519531 -10.269531 7.125 -9.84375 C 7.726562 -9.425781 8.03125 -8.757812 8.03125 -7.84375 C 8.03125 -7.21875 7.878906 -6.691406 7.578125 -6.265625 C 7.273438 -5.847656 6.851562 -5.523438 6.3125 -5.296875 L 6.3125 -5.25 C 6.601562 -5.144531 6.84375 -4.945312 7.03125 -4.65625 C 7.226562 -4.363281 7.4375 -3.9375 7.65625 -3.375 L 8.828125 -0.421875 C 8.859375 -0.328125 8.875 -0.253906 8.875 -0.203125 C 8.875 -0.046875 8.660156 0.03125 8.234375 0.03125 L 8.09375 0.03125 C 7.9375 0.03125 7.800781 0.0078125 7.6875 -0.03125 C 7.582031 -0.0820312 7.515625 -0.140625 7.484375 -0.203125 L 6.359375 -3.140625 C 6.140625 -3.710938 5.863281 -4.097656 5.53125 -4.296875 C 5.195312 -4.503906 4.726562 -4.609375 4.125 -4.609375 L 2.765625 -4.609375 L 2.765625 -0.296875 C 2.765625 -0.078125 2.566406 0.03125 2.171875 0.03125 Z M 4.75 -5.75 C 5.101562 -5.75 5.425781 -5.832031 5.71875 -6 C 6.007812 -6.175781 6.238281 -6.40625 6.40625 -6.6875 C 6.582031 -6.96875 6.671875 -7.269531 6.671875 -7.59375 C 6.671875 -8.1875 6.488281 -8.625 6.125 -8.90625 C 5.769531 -9.195312 5.273438 -9.34375 4.640625 -9.34375 L 2.765625 -9.34375 L 2.765625 -5.75 Z M 4.75 -5.75 "/></g></g></g></svg>